<?xml version="1.0" encoding="utf-8"?>
<!-- Generator: Adobe Illustrator 25.3.1, SVG Export Plug-In . SVG Version: 6.00 Build 0)  -->
<svg version="1.1" id="ckan-logo" xmlns:svg="http://www.w3.org/2000/svg"
	 xmlns="http://www.w3.org/2000/svg" xmlns:xlink="http://www.w3.org/1999/xlink" x="0px" y="0px" viewBox="0 0 936 504"
	 style="enable-background:new 0 0 936 504;" xml:space="preserve">
<style type="text/css">
	.st0{fill:#FFFFFF;}
	.st1{font-family:'ArtifexCF-ExtraBold';}
	.st2{font-size:48.9565px;}
</style>
<g>
	<g>
		<path class="st0" d="M246.4,157.8l4.6-24l-12.6-29.6l-14.1-14.7c0,0-0.9-0.7-0.8-0.7c22.6,9.8,39.5,36.5,42.3,68.7
			c0,0.1,0,0.2,0,0.2L246.4,157.8z M239.2,157.8l-24.8-0.1l0-67.6c0,0,0.2,0.2,0.3,0.3c14.6,12.5,24.5,37.5,24.5,66.4
			C239.2,157.1,239.2,157.8,239.2,157.8z M265.8,157.7l-19.3,0.1c0,0-0.1-2.3-0.1-3.6c0.1,1.5,0.1-4.4-0.7-11.9
			c-1.9-18-7.3-32.5-15.2-44.9c-3.2-5-6.9-8.5-6.9-8.5l-0.1-0.1c0,0,1.9,1.1,2.9,1.8c1.5,1,3.1,2,4.5,3c5.2,3.7,9.6,7.9,11.9,10.3
			c0.2,0.2,1.1,1.1,1.9,2.1c0.9,1,1.9,2.1,2.6,3c2.9,3.5,5.8,7.5,8.4,12.1c1.4,2.5,2.6,5.1,3.6,7.7c4.3,10.6,5.8,21.1,6.3,28.1
			C265.7,156.8,265.8,157.7,265.8,157.7z M265.7,156.8C265.7,156.8,265.7,156.8,265.7,156.8C265.7,156.8,265.7,156.8,265.7,156.8z
			 M275.4,154.3l-9.5-38.7l-20-21.4c0,0-5.9-4.2-9.3-6.5c-1.3-0.9-2.4-1.4-2.4-1.4s0.1,0,0.1,0c28.5,11.5,48.8,38.9,50,71.3
			c0,0,0,0.1,0,0.1L275.4,154.3z M236.8,88 M273.1,157.7c0,0-0.7-7.8-2.1-14.8c-1.2-6-3.1-11.2-3.3-11.8c-1.2-3.4-2.5-7.2-4.6-11.3
			c-3.7-7.4-7.6-14.2-14.4-21.5c-2.1-2.2-4.4-4.6-7.2-6.8c-1.8-1.5-3.4-2.7-4.6-3.5c0.7,0.4,1.6,0.9,2.7,1.6c2,1.2,4.5,2.6,7.1,4.4
			c1.2,0.8,2.2,1.6,3.5,2.5c0.3,0.2,3.9,3,7.5,6.4c3,2.8,5.8,6.1,7.8,8.5c3.5,4.4,6.9,9.5,9.8,15.2c3.4,6.7,5.6,13.5,7,19.4
			c1,4.5,1.8,11.7,1.8,11.7L273.1,157.7z M265.8,157.7l-19.3,0.1c0,0-0.1-2.3-0.1-3.6c0.1,1.5,0.1-4.4-0.7-11.9
			c-1.9-18-7.3-32.5-15.2-44.9c-3.2-5-6.9-8.5-6.9-8.5l-0.1-0.1c0,0,1.9,1.1,2.9,1.8c1.5,1,3.1,2,4.5,3c5.2,3.7,9.6,7.9,11.9,10.3
			c0.2,0.2,1.1,1.1,1.9,2.1c0.9,1,1.9,2.1,2.6,3c2.9,3.5,5.8,7.5,8.4,12.1c1.4,2.5,2.6,5.1,3.6,7.7c4.3,10.6,5.8,21.1,6.3,28.1
			C265.7,156.8,265.8,157.7,265.8,157.7z M265.7,156.8C265.7,156.8,265.7,156.8,265.7,156.8C265.7,156.8,265.7,156.8,265.7,156.8z
			 M197,89.5l-14.1,14.7l-12.6,29.6l4.6,24l-19.4-0.1c0,0,0-0.1,0-0.2c2.8-32.3,19.7-58.9,42.3-68.7C197.9,88.8,197,89.5,197,89.5z
			 M182.1,157.8c0,0,0-0.7,0-1.1c0-28.8,9.9-53.9,24.5-66.4c0.1-0.1,0.3-0.3,0.3-0.3l0,67.6L182.1,157.8z M155.6,156.9L155.6,156.9
			C155.6,156.8,155.6,156.8,155.6,156.9L155.6,156.9C155.6,156.8,155.6,156.8,155.6,156.9z M197.8,88.9c0,0-3.6,3.5-6.9,8.5
			c-7.9,12.4-13.4,27-15.2,44.9c-0.8,7.5-0.7,13.4-0.7,11.9c0,1.3-0.1,3.6-0.1,3.6l-19.3-0.1c0,0,0.1-0.8,0.1-0.9c0,0,0,0,0,0
			c0,0,0,0,0,0c0.5-7,2-17.5,6.3-28.1c1-2.6,2.2-5.2,3.6-7.7c2.5-4.6,5.4-8.6,8.4-12.1c0.7-0.9,1.7-2,2.6-3c0.9-1,1.7-1.8,1.9-2.1
			c2.3-2.4,6.8-6.6,11.9-10.3c1.4-1,3-2,4.5-3c1.1-0.7,2.9-1.8,2.9-1.8L197.8,88.9z M184.9,87.8c-3.4,2.3-9.3,6.5-9.3,6.5l-20,21.4
			l-10.2,42l-8.2,0c0,0,0-0.1,0-0.1c1.2-32.3,21.5-59.8,50-71.3c0,0,0.1,0,0.1,0S186.2,86.9,184.9,87.8z M172.7,98.3
			c-6.9,7.3-10.7,14.1-14.4,21.5c-2.1,4.1-3.4,7.9-4.6,11.3c-0.2,0.6-2.1,5.9-3.3,11.8c-1.4,7-2.1,14.8-2.1,14.8l-10.7,0
			c0,0,0.8-7.2,1.8-11.7c1.3-6,3.6-12.8,7-19.4c2.9-5.7,6.2-10.8,9.8-15.2c1.9-2.4,4.8-5.7,7.8-8.5c3.6-3.4,7.3-6.2,7.5-6.4
			c1.2-0.9,2.3-1.7,3.5-2.5c2.6-1.7,5-3.2,7.1-4.4c1.1-0.6,2-1.1,2.7-1.6c-1.2,0.8-2.8,2-4.6,3.5C177.1,93.8,174.8,96.1,172.7,98.3z
			 M184.5,88 M155.6,156.9L155.6,156.9C155.6,156.8,155.6,156.8,155.6,156.9L155.6,156.9C155.6,156.8,155.6,156.8,155.6,156.9z
			 M197.8,88.9c0,0-3.6,3.5-6.9,8.5c-7.9,12.4-13.4,27-15.2,44.9c-0.8,7.5-0.7,13.4-0.7,11.9c0,1.3-0.1,3.6-0.1,3.6l-19.3-0.1
			c0,0,0.1-0.8,0.1-0.9c0,0,0,0,0,0c0,0,0,0,0,0c0.5-7,2-17.5,6.3-28.1c1-2.6,2.2-5.2,3.6-7.7c2.5-4.6,5.4-8.6,8.4-12.1
			c0.7-0.9,1.7-2,2.6-3c0.9-1,1.7-1.8,1.9-2.1c2.3-2.4,6.8-6.6,11.9-10.3c1.4-1,3-2,4.5-3c1.1-0.7,2.9-1.8,2.9-1.8L197.8,88.9z
			 M225.1,62.2l-29,0c-0.3,0-0.5-0.2-0.5-0.5l0-1.1c0-0.3,0.2-0.5,0.5-0.5l29,0c0.3,0,0.5,0.2,0.5,0.5v1.1
			C225.6,62,225.3,62.2,225.1,62.2z M225.1,84.1l-29,0c-0.3,0-0.5-0.2-0.5-0.5v-1.1c0-0.3,0.2-0.5,0.5-0.5l29,0
			c0.3,0,0.5,0.2,0.5,0.5v1.1C225.6,83.8,225.3,84.1,225.1,84.1z M288,165.5l-154.6,0c-0.3,0-0.5-0.2-0.5-0.5v-1.3
			c0-0.3,0.2-0.5,0.5-0.5l154.6,0c0.3,0,0.5,0.2,0.5,0.5v1.3C288.5,165.3,288.3,165.5,288,165.5z M207.9,44.9h-0.5
			c-0.1,0-0.1,0-0.1-0.1v-1.1c0-0.1,0-0.1,0.1-0.1l0.5,0c0.1,0,0.1,0,0.1,0.1v1.1C208,44.9,208,44.9,207.9,44.9z M213.8,44.9h-0.5
			c-0.1,0-0.1,0-0.1-0.1v-1.1c0-0.1,0-0.1,0.1-0.1h0.5c0.1,0,0.1,0,0.1,0.1l0,1.1C213.9,44.9,213.8,44.9,213.8,44.9z M207.4,45.1
			v-0.4l6.5,0v0.4L207.4,45.1z M210.9,40.5h-0.5c-0.1,0-0.1-0.1-0.1-0.1v-1.2c0-0.1,0.1-0.1,0.1-0.1h0.5c0.1,0,0.1,0.1,0.1,0.1v1.2
			C211,40.4,211,40.5,210.9,40.5z M210.4,48l0-7.6l0.4,0V48H210.4z M199.4,58.7C199.4,58.7,199.4,58.7,199.4,58.7
			c0-6.5,5-11.7,11.2-11.7c6.2,0,11.2,5.2,11.2,11.6c0,0,0,0.1,0,0.1L199.4,58.7z M224.7,62.1l-28.1,0c-0.5,0-0.9-0.4-0.9-0.9V61
			c0-0.5,0.4-0.9,0.9-0.9l28.1,0c0.5,0,0.9,0.4,0.9,0.9v0.2C225.5,61.7,225.2,62.1,224.7,62.1z M224.7,84l-28.1,0
			c-0.5,0-0.9-0.4-0.9-0.9v-0.2c0-0.5,0.4-0.9,0.9-0.9l28.1,0c0.5,0,0.9,0.4,0.9,0.9v0.2C225.5,83.7,225.2,84,224.7,84z M212,80.2
			h-2.8c-0.5,0-0.9-0.4-0.9-0.9v-15c0-0.5,0.4-0.9,0.9-0.9h2.8c0.5,0,0.9,0.4,0.9,0.9v15C212.9,79.8,212.5,80.2,212,80.2z
			 M219.4,80.2h-2.8c-0.5,0-0.9-0.4-0.9-0.9l0-15c0-0.5,0.4-0.9,0.9-0.9h2.8c0.5,0,0.9,0.4,0.9,0.9v15
			C220.2,79.8,219.8,80.2,219.4,80.2z M204.7,80.2h-2.8c-0.5,0-0.9-0.4-0.9-0.9v-15c0-0.5,0.4-0.9,0.9-0.9h2.8
			c0.5,0,0.9,0.4,0.9,0.9l0,15C205.5,79.8,205.2,80.2,204.7,80.2z M238.6,164.2v-3.4c0-0.4,0.3-0.7,0.7-0.7h6.8
			c0.4,0,0.7,0.3,0.7,0.7v3.2L238.6,164.2z M246,176.4h-6.6c-0.5,0-0.9-0.4-0.9-0.9v-6.5c0-0.5,0.4-0.9,0.9-0.9h6.6
			c0.5,0,0.9,0.4,0.9,0.9v6.5C246.9,176,246.5,176.4,246,176.4z M265.1,164.2v-3.4c0-0.4,0.3-0.7,0.7-0.7l6.8,0
			c0.4,0,0.7,0.3,0.7,0.7v3.2L265.1,164.2z M272.5,176.4l-6.6,0c-0.5,0-0.9-0.4-0.9-0.9v-6.5c0-0.5,0.4-0.9,0.9-0.9h6.6
			c0.5,0,0.9,0.4,0.9,0.9v6.5C273.4,176,273,176.4,272.5,176.4z M174.4,163.9v-3.2c0-0.4,0.3-0.7,0.7-0.7l6.8,0
			c0.4,0,0.7,0.3,0.7,0.7v3.4L174.4,163.9z M181.8,176.4h-6.6c-0.5,0-0.9-0.4-0.9-0.9l0-6.6c0-0.5,0.4-0.9,0.9-0.9l6.6,0
			c0.5,0,0.9,0.4,0.9,0.9v6.6C182.7,176,182.3,176.4,181.8,176.4z M147.9,163.9v-3.2c0-0.4,0.3-0.7,0.7-0.7l6.8,0
			c0.4,0,0.7,0.3,0.7,0.7l0,3.4L147.9,163.9z M155.3,176.4h-6.6c-0.5,0-0.9-0.4-0.9-0.9l0-6.6c0-0.5,0.4-0.9,0.9-0.9l6.6,0
			c0.5,0,0.9,0.4,0.9,0.9v6.6C156.2,176,155.8,176.4,155.3,176.4z M206.5,163.9v-3.2c0-0.4,0.3-0.7,0.7-0.7l6.8,0
			c0.4,0,0.7,0.3,0.7,0.7v3.4L206.5,163.9z M213.9,176.4h-6.6c-0.5,0-0.9-0.4-0.9-0.9v-6.6c0-0.5,0.4-0.9,0.9-0.9l6.6,0
			c0.5,0,0.9,0.4,0.9,0.9v6.6C214.8,176,214.4,176.4,213.9,176.4z M287.6,165.5l-153.9,0c-0.5,0-0.9-0.4-0.9-0.9v-0.5
			c0-0.5,0.4-0.9,0.9-0.9l153.9,0c0.5,0,0.9,0.4,0.9,0.9v0.5C288.5,165.1,288.1,165.5,287.6,165.5z M287.6,183.7l-153.9,0
			c-0.5,0-0.9-0.4-0.9-0.9v-3.6c0-0.5,0.4-0.9,0.9-0.9l153.9,0c0.5,0,0.9,0.4,0.9,0.9v3.6C288.5,183.3,288.1,183.7,287.6,183.7z"/>
	</g>
	<g>
		<path class="st0" d="M133.5,217.2L133.5,217.2c0-5.8,4.2-10.8,10.4-10.8c3.5,0,5.7,1,7.7,2.8l-1.5,1.8c-1.6-1.4-3.4-2.4-6.3-2.4
			c-4.6,0-7.9,3.9-7.9,8.5v0.1c0,5,3.2,8.6,8.2,8.6c2.4,0,4.6-0.9,6-2.1v-5.2h-6.3v-2.1h8.6v8.3c-1.9,1.7-4.8,3.2-8.3,3.2
			C137.6,227.9,133.5,223.2,133.5,217.2z"/>
		<path class="st0" d="M160.2,217.2L160.2,217.2c0-5.8,4.3-10.8,10.6-10.8s10.6,5,10.6,10.7c0,0,0,0,0,0.1c0,5.7-4.3,10.7-10.6,10.7
			S160.2,223,160.2,217.2z M178.9,217.2L178.9,217.2c0-4.8-3.4-8.6-8.2-8.6c-4.7,0-8.1,3.8-8.1,8.5v0.1c0,4.7,3.4,8.6,8.2,8.6
			C175.5,225.7,178.9,222,178.9,217.2z"/>
		<path class="st0" d="M189.7,206.8h8.8c2.4,0,4.2,0.7,5.4,1.8c0.9,0.9,1.3,2,1.3,3.3v0.1c0,2.7-1.7,4.1-3.3,4.8
			c2.5,0.7,4.4,2.2,4.4,5v0.1c0,3.6-3,5.7-7.5,5.7h-9.2V206.8z M198.1,216.1c2.8,0,4.8-1.3,4.8-3.7v-0.1c0-2-1.6-3.4-4.6-3.4H192
			v7.1H198.1z M198.9,225.5c3.1,0,5.1-1.4,5.1-3.7v-0.1c0-2.3-1.9-3.6-5.5-3.6H192v7.3H198.9z"/>
		<path class="st0" d="M214.7,206.8h2.3v20.8h-2.3V206.8z"/>
		<path class="st0" d="M226.4,206.8h15v2.1h-12.7v7.1h11.3v2.1h-11.3v7.3h12.8v2.1h-15.2V206.8z"/>
		<path class="st0" d="M249.7,206.8h8.9c2.5,0,4.6,0.8,5.9,2.1c1,1,1.6,2.5,1.6,4.1v0.1c0,3.4-2.4,5.5-5.6,6l6.4,8.5H264l-6-8.1
			h-0.1H252v8.1h-2.3V206.8z M258.4,217.4c3.1,0,5.3-1.6,5.3-4.3v-0.1c0-2.5-2-4.1-5.3-4.1H252v8.4H258.4z"/>
		<path class="st0" d="M274.5,206.8h2.2l13.1,16.6v-16.6h2.3v20.8h-1.9l-13.4-17v17h-2.3V206.8z"/>
		<path class="st0" d="M300.4,217.2L300.4,217.2c0-5.8,4.3-10.8,10.6-10.8s10.6,5,10.6,10.7c0,0,0,0,0,0.1c0,5.7-4.3,10.7-10.6,10.7
			C304.6,227.9,300.4,223,300.4,217.2z M319.1,217.2L319.1,217.2c0-4.8-3.4-8.6-8.2-8.6c-4.7,0-8.1,3.8-8.1,8.5v0.1
			c0,4.7,3.4,8.6,8.2,8.6C315.8,225.7,319.1,222,319.1,217.2z"/>
		<path class="st0" d="M342.2,206.8h7.2c6.5,0,11,4.5,11,10.3v0.1c0,5.8-4.5,10.4-11,10.4h-7.2V206.8z M349.4,225.4
			c5.2,0,8.6-3.6,8.6-8.2v-0.1c0-4.6-3.3-8.2-8.6-8.2h-4.9v16.4H349.4z"/>
		<path class="st0" d="M368.7,206.8h15v2.1h-12.7v7.1h11.3v2.1h-11.3v7.3h12.8v2.1h-15.2V206.8z"/>
		<path class="st0" d="M404.2,206.8h2.3v18.6h11.7v2.2h-14V206.8z"/>
		<path class="st0" d="M433.7,206.7h2.2l9.5,20.9h-2.5l-2.4-5.5h-11.3l-2.5,5.5h-2.4L433.7,206.7z M439.4,220l-4.7-10.6L430,220
			H439.4z"/>
	</g>
	<g>
		<path class="st0" d="M161.7,278.1c-2.7,0.9-6.4,0.8-9-2.5l-6.6-8.5c-1.8-2.4-4-2.7-7-2.8v8.3c0,3,2.1,3.5,4.8,3.9
			c0.3,0,0.1,1.5-0.3,1.5h-13c-0.3,0-0.6-1.4-0.3-1.5c2.2-0.3,3.6-1.2,3.6-3.9v-19.1c0-2.8-1.5-3.6-3.6-4.2
			c-0.3-0.1-0.1-1.5,0.3-1.5c1.7,0.2,3.6,0.3,4.9,0.3c3.2,0,6.1-0.3,8.2-0.3c6.5,0,10.8,2.7,10.8,7.9c0,5-4,7.4-7.6,7.6v0.2
			c1.7,0,3,0.7,4.8,3.1l6.4,8c1.3,1.7,2.6,2.1,3.6,2.1C162,276.9,161.9,278.1,161.7,278.1z M149.1,257c0-4.6-2.9-6.8-6.7-6.8
			c-2.5,0-3.3,1-3.3,3.4v8.8h1.2C146.7,262.4,149.1,261.3,149.1,257z"/>
		<path class="st0" d="M168.6,276.5c2.5-0.6,4.4-1,4.4-4.2v-19c0-2.7-1.8-3.5-3.6-3.9c-0.3-0.1-0.1-1.5,0.2-1.5
			c3.1,0.3,8.5,0.3,11.1,0.3c3.9,0,6.7-0.2,10.2-0.3c1,0,1,0.7,0.8,1.7l-1,4.1c-0.1,0.6-1.2,0.6-1.4,0c-0.6-2.1-1.9-3.3-7.3-3.3
			c-3,0-4,0.8-4,3v7c0,1.1,0.6,1.3,1.4,1.3h0.9c3.5,0,6.5-0.3,8.2-1.9c0.4-0.4,1.4-0.3,1,0.6l-2.4,5.4c-0.3,0.8-1,0.7-1.5,0
			c-1-1.4-3.2-1.9-5.7-1.9h-0.6c-0.9,0-1.4,0.2-1.4,1.3v7.2c0,2.4,1,3.3,4.6,3.3c6.5,0,9-3,10.1-4.6c0.3-0.5,1.5-0.3,1.5,0.5
			c0,2.2-1.8,6.5-4.5,6.5c-2.4-0.1-4.8-0.3-8.3-0.3c-3.9,0-8.6-0.1-12.5,0.3C168.4,278.1,168.2,276.6,168.6,276.5z"/>
		<path class="st0" d="M211.3,266.5v6.2c0,3,2.1,3.5,4.8,3.9c0.3,0,0.1,1.5-0.3,1.5h-13c-0.3,0-0.6-1.4-0.3-1.5
			c2.2-0.3,3.6-1.2,3.6-3.9v-19.1c0-2.8-1.5-3.6-3.6-4.2c-0.3-0.1-0.1-1.5,0.3-1.5c1.7,0.2,3.6,0.3,4.9,0.3c3.2,0,5.8-0.3,8-0.3
			c6.6,0,12.1,2.4,12.1,9.2C227.9,264.7,220.8,267.9,211.3,266.5z M211.3,253.6v10.8c7.3,1,11.1-0.7,11.1-6.3c0-5.1-3.3-7.9-7.7-7.9
			C212,250.1,211.3,251.1,211.3,253.6z"/>
		<path class="st0" d="M240,266.8v-13.4c0-2.7-1.4-3.6-3.5-3.9c-0.3,0-0.1-1.5,0.3-1.5h11.7c0.3,0,0.6,1.4,0.3,1.5
			c-1.7,0.2-3.4,0.9-3.4,3.9V267c0,6,3.5,8.8,8,8.8c4.7,0,8.4-2.8,8.4-8.8v-13.7c0-2.8-1.6-3.6-3.7-3.9c-0.3,0-0.1-1.5,0.3-1.5h9.6
			c0.3,0,0.6,1.4,0.2,1.5c-1.7,0.2-3.4,0.9-3.4,3.9v13.4c0,7.9-5.1,11.9-11.9,11.9C246.8,278.7,240,275.4,240,266.8z M252.6,237.3
			c0.8-1.1,4.4,2.2,3.3,3l-5.6,4.2c-0.6,0.4-2.1-0.9-1.6-1.5L252.6,237.3z"/>
		<path class="st0" d="M302.4,269.3c0,5.3-4.8,8.7-12,8.7c-2.1,0-4.5-0.3-7.6-0.3c-2.7,0-4.8,0-6.7,0.3c-0.4,0-0.6-1.5-0.3-1.5
			c2.5-0.6,4.4-1,4.4-4.2v-19c0-2.7-1.8-3.5-3.6-3.9c-0.3-0.1-0.1-1.5,0.2-1.5c1.8,0.2,3.8,0.3,5.2,0.3c3.4,0,5.9-0.3,7.8-0.3
			c5.5,0,10.1,2.3,10.1,7c0,3.5-2.4,5.9-5.4,6.5v0.3C298.6,261.7,302.4,264.5,302.4,269.3z M285.4,253.3v7.6h4.4
			c3.1,0,4.9-1.5,4.9-4.8c0-4.1-2.7-5.9-6.2-5.9C286.2,250.1,285.4,250.9,285.4,253.3z M296.9,270.3c0-4.7-3.1-7.2-7.1-7.2h-4.4v9.2
			c0,2.4,1.2,3.5,4.9,3.5C294.1,275.8,296.9,274.7,296.9,270.3z"/>
		<path class="st0" d="M310.6,276.5c2.5-0.6,4.4-1,4.4-4.2v-19c0-3-1.8-3.6-3.6-3.9c-0.3,0-0.1-1.5,0.2-1.5h11.8
			c0.3,0,0.5,1.4,0.2,1.5c-1.8,0.2-3.5,0.9-3.5,3.9v19c0,2.4,1,3.3,4.6,3.3c6.5,0,9-3,10.1-4.6c0.3-0.5,1.5-0.3,1.5,0.5
			c0,2.2-1.8,6.5-4.5,6.5c-2.4-0.1-4.8-0.3-8.3-0.3c-3.9,0-8.6-0.1-12.5,0.3C310.4,278.1,310.3,276.6,310.6,276.5z"/>
		<path class="st0" d="M343.8,276.5c2.2-0.3,3.6-1.2,3.6-3.9v-19.3c0-2.7-1.4-3.6-3.6-3.9c-0.3,0-0.1-1.5,0.3-1.5h11.7
			c0.3,0,0.6,1.4,0.3,1.5c-1.8,0.3-3.6,0.9-3.6,3.9v19.3c0,3,1.7,3.6,3.6,3.9c0.3,0,0.1,1.5-0.3,1.5h-11.7
			C343.7,278,343.5,276.6,343.8,276.5z"/>
		<path class="st0" d="M365.1,263.5c0-7.4,4.5-16.2,16.5-16.2c5,0,9.2,1.5,8.7,3l-0.6,1.7c-1.5,4.6-3.2-1.3-10.8-1.3
			c-6.1,0-9.1,4-9.1,10.1c0,9.6,7.3,13.7,13.2,13.7c0.8,0,4.7-0.6,6.9-2c0.3-0.2,1.2,0.8,1,1.2c-1.8,2.7-7.6,5-8.9,5
			C374.8,278.7,365.1,274.5,365.1,263.5z"/>
		<path class="st0" d="M430,278h-11.3c-0.6,0-0.6-1.4-0.1-1.5c1.6-0.3,3.3-0.9,1.7-4.5l-0.5-1.1c-0.4-1-1.2-1.1-2.4-1.1h-8.7
			c-1.3,0-2,0.1-2.4,1.1l-0.4,1.1c-1.5,3.7,0.1,4.2,2.2,4.5c0.6,0.1,0.4,1.5-0.1,1.5h-9.2c-0.5,0-0.6-1.4-0.1-1.5
			c1.8-0.3,2.8-0.9,4.4-4.5l7.2-16.6c1.7-3.8,2.2-5.5,2.2-7.1c0-0.3,3-0.9,3.1-0.6l10.4,24.4c1.5,3.6,2.6,4.3,4.3,4.6
			C430.7,276.6,430.5,278,430,278z M418.1,266.7l-5-12l-5.1,12c-0.3,0.6,0.4,0.7,1,0.7h8.1C417.7,267.4,418.3,267.3,418.1,266.7z"/>
		<path class="st0" d="M450.7,276.5c2.5-0.6,4.4-1,4.4-4.2v-19c0-2.7-1.8-3.5-3.6-3.9c-0.3-0.1-0.1-1.5,0.2-1.5
			c1.8,0.2,3.6,0.3,5.3,0.3c3.3,0,6.3-0.3,8.5-0.3c10.4,0,16,6.2,16,14.4c0,8.2-5.6,15.7-16,15.7c-2.1,0-4.7-0.3-7.9-0.3
			c-2.7,0-4.8,0-6.7,0.3C450.6,278.1,450.4,276.6,450.7,276.5z M476.5,264.8c0-8.2-4.4-14.6-12.2-14.6c-3,0-4,0.9-4,3.1v19
			c0,2.3,1.6,3.5,5.7,3.5C473,275.8,476.5,272,476.5,264.8z"/>
		<path class="st0" d="M490.9,263.2c0-8.6,6.2-15.8,15.5-15.8c8.9,0,15.5,6.6,15.5,15.5c0,8.7-6.1,15.9-15.5,15.9
			C497.5,278.7,490.9,272.1,490.9,263.2z M516.8,265.2c0-8.6-5.9-14.9-12-14.9c-3.8,0-8.7,2.5-8.7,10.5c0,8.7,5.9,15,12,15
			C511.8,275.7,516.8,273.3,516.8,265.2z"/>
		<path class="st0" d="M568.5,278h-11.2c-0.3,0-0.5-1.4-0.3-1.5c1.8-0.3,3.1-1.2,3-3.9l-0.8-14.4l-6.9,14.1
			c-0.9,1.8-1.6,3.7-1.7,4.4c-0.1,0.5-1,0.8-1.7,0.8c-0.6,0-1.1-0.3-1.3-0.8l-9.9-18.7l-0.6,14.6c-0.1,3,1.6,3.7,3,3.9
			c0.3,0,0.1,1.5-0.2,1.5H531c-0.3,0-0.6-1.4-0.3-1.5c1.8-0.2,3.4-0.9,3.6-3.9l1.4-24.6c0-0.7,1.7-0.8,2.1,0l12.4,23.2l11.5-23.2
			c0.4-0.8,2.1-0.7,2.1,0l1.4,24.6c0.2,3,1.7,3.6,3.5,3.9C569,276.6,568.8,278,568.5,278z"/>
		<path class="st0" d="M577.3,276.5c2.2-0.3,3.6-1.2,3.6-3.9v-19.3c0-2.7-1.4-3.6-3.6-3.9c-0.3,0-0.1-1.5,0.3-1.5h11.7
			c0.3,0,0.6,1.4,0.3,1.5c-1.8,0.3-3.6,0.9-3.6,3.9v19.3c0,3,1.7,3.6,3.6,3.9c0.3,0,0.1,1.5-0.3,1.5h-11.7
			C577.2,278,576.9,276.6,577.3,276.5z"/>
		<path class="st0" d="M624.7,277.6l-20.4-21.3v16.3c0,2.9,1.7,3.4,4.2,4c0.3,0.1,0.2,1.5-0.3,1.5h-10.1c-0.3,0-0.6-1.3-0.2-1.5
			c1.8-0.6,3.5-0.9,3.5-4v-16.6c0-3-0.5-4.5-1.6-6c-0.4-0.5-0.8-0.9-0.8-1c0-0.4,0.3-0.9,0.9-0.9h3.2c0.4,0,0.7,0,1,0.4l19.9,21.1
			v-16.1c0-3-1.9-3.4-4.2-3.9c-0.3-0.1-0.2-1.5,0.3-1.5h10.1c0.3,0,0.6,1.4,0.2,1.5c-1.9,0.6-3.5,0.9-3.5,3.9V270
			c0,2.8,0.1,5.9,0.5,7.5c0.2,0.6-0.5,0.8-1.2,0.8C625.6,278.4,625.2,278.1,624.7,277.6z"/>
		<path class="st0" d="M639.1,276.5c2.2-0.3,3.6-1.2,3.6-3.9v-19.3c0-2.7-1.4-3.6-3.6-3.9c-0.3,0-0.1-1.5,0.3-1.5h11.7
			c0.3,0,0.6,1.4,0.3,1.5c-1.8,0.3-3.6,0.9-3.6,3.9v19.3c0,3,1.7,3.6,3.6,3.9c0.3,0,0.1,1.5-0.3,1.5h-11.7
			C639,278,638.7,276.6,639.1,276.5z"/>
		<path class="st0" d="M660.4,263.5c0-7.4,4.5-16.2,16.5-16.2c5,0,9.2,1.5,8.7,3l-0.6,1.7c-1.5,4.6-3.2-1.3-10.8-1.3
			c-6.1,0-9.1,4-9.1,10.1c0,9.6,7.3,13.7,13.2,13.7c0.8,0,4.7-0.6,6.9-2c0.3-0.2,1.2,0.8,1,1.2c-1.8,2.7-7.6,5-8.9,5
			C670.1,278.7,660.4,274.5,660.4,263.5z"/>
		<path class="st0" d="M725.3,278H714c-0.6,0-0.6-1.4-0.1-1.5c1.6-0.3,3.3-0.9,1.7-4.5l-0.5-1.1c-0.4-1-1.2-1.1-2.4-1.1h-8.7
			c-1.3,0-2,0.1-2.4,1.1L701,272c-1.5,3.7,0.1,4.2,2.2,4.5c0.6,0.1,0.4,1.5-0.1,1.5h-9.2c-0.5,0-0.6-1.4-0.1-1.5
			c1.8-0.3,2.8-0.9,4.4-4.5l7.2-16.6c1.7-3.8,2.2-5.5,2.2-7.1c0-0.3,3-0.9,3.1-0.6l10.4,24.4c1.5,3.6,2.6,4.3,4.3,4.6
			C726,276.6,725.8,278,725.3,278z M713.3,266.7l-5-12l-5.1,12c-0.3,0.6,0.4,0.7,1,0.7h8.1C712.9,267.4,713.6,267.3,713.3,266.7z"/>
		<path class="st0" d="M760.1,277.6l-20.4-21.3v16.3c0,2.9,1.7,3.4,4.2,4c0.3,0.1,0.2,1.5-0.3,1.5h-10.1c-0.3,0-0.6-1.3-0.2-1.5
			c1.8-0.6,3.5-0.9,3.5-4v-16.6c0-3-0.5-4.5-1.6-6c-0.4-0.5-0.8-0.9-0.8-1c0-0.4,0.3-0.9,0.9-0.9h3.2c0.4,0,0.7,0,1,0.4l19.9,21.1
			v-16.1c0-3-1.9-3.4-4.2-3.9c-0.3-0.1-0.2-1.5,0.3-1.5h10.1c0.3,0,0.6,1.4,0.2,1.5c-1.9,0.6-3.5,0.9-3.5,3.9V270
			c0,2.8,0.1,5.9,0.5,7.5c0.2,0.6-0.5,0.8-1.2,0.8C761,278.4,760.6,278.1,760.1,277.6z"/>
		<path class="st0" d="M804.3,278H793c-0.6,0-0.6-1.4-0.1-1.5c1.6-0.3,3.3-0.9,1.7-4.5l-0.5-1.1c-0.4-1-1.2-1.1-2.4-1.1H783
			c-1.3,0-2,0.1-2.4,1.1l-0.4,1.1c-1.5,3.7,0.1,4.2,2.2,4.5c0.6,0.1,0.4,1.5-0.1,1.5h-9.2c-0.5,0-0.6-1.4-0.1-1.5
			c1.8-0.3,2.8-0.9,4.4-4.5l7.2-16.6c1.7-3.8,2.2-5.5,2.2-7.1c0-0.3,3-0.9,3.1-0.6l10.4,24.4c1.5,3.6,2.6,4.3,4.3,4.6
			C805,276.6,804.8,278,804.3,278z M792.4,266.7l-5-12l-5.1,12c-0.3,0.6,0.4,0.7,1,0.7h8.1C792,267.4,792.6,267.3,792.4,266.7z"/>
	</g>
	<rect x="133.9" y="303.5" class="st0" width="154.8" height="7.3"/>
</g>
<text transform="matrix(1 0 0 1 132.8804 384.5498)"><tspan x="0" y="0" class="st0 st1 st2">ÉTICA E INTEGRIDAD </tspan><tspan x="0" y="58.7" class="st0 st1 st2">GUBERNAMENTAL</tspan></text>
</svg>
