<?xml version="1.0" encoding="UTF-8"?><svg id="a" xmlns="http://www.w3.org/2000/svg" viewBox="0 0 32 20.07"><defs><style>.b{letter-spacing:0em;}.c{letter-spacing:0em;}.d{letter-spacing:-.02em;}.e{letter-spacing:.02em;}.f{letter-spacing:-.07em;}.g,.h{fill:#fff;}.i{letter-spacing:.01em;}.h{font-family:ArtifexCF-ExtraBold, Artifex CF;font-size:2.32px;}.j{letter-spacing:-.01em;}.k{letter-spacing:.01em;}.l{letter-spacing:0em;}</style></defs><g><path class="g" d="M5.51,5.63l.22-1.14-.6-1.4-.67-.7s-.04-.03-.04-.03c1.07,.47,1.87,1.73,2.01,3.26h-.92Zm-.34,.01h-1.18V2.42h.01c.69,.61,1.16,1.79,1.16,3.16v.05Zm1.26,0h-.92s0-.11,0-.17c0,.07,0-.21-.03-.56-.09-.85-.35-1.54-.72-2.13-.15-.24-.33-.41-.33-.41h0s.09,.05,.14,.08c.07,.05,.15,.09,.21,.14,.25,.18,.46,.37,.57,.49,.01,.01,.05,.05,.09,.1,.04,.05,.09,.1,.12,.14,.14,.17,.28,.36,.4,.57,.07,.12,.12,.24,.17,.36,.2,.5,.28,1,.3,1.33v.04Zm0-.04h0Zm.46-.12l-.45-1.83-.95-1.02s-.28-.2-.44-.31c-.06-.04-.11-.07-.11-.07h0c1.35,.55,2.31,1.85,2.37,3.38h0l-.42-.16Zm-1.83-3.15,1.72,3.31s-.03-.37-.1-.7c-.06-.28-.15-.53-.16-.56-.06-.16-.12-.34-.22-.53-.18-.35-.36-.68-.68-1.02-.1-.11-.21-.22-.34-.32-.09-.07-.16-.13-.22-.17,.03,.02,.07,.04,.13,.07,.1,.06,.21,.12,.33,.21,.06,.04,.11,.08,.16,.12,.01,0,.19,.14,.36,.31,.14,.14,.28,.29,.37,.4,.17,.21,.33,.45,.46,.72,.16,.32,.27,.64,.33,.92,.05,.21,.08,.56,.08,.56h-.51Zm-.35,0h-.92s0-.11,0-.17c0,.07,0-.21-.03-.56-.09-.85-.35-1.54-.72-2.13-.15-.24-.33-.41-.33-.41h0s.09,.05,.14,.08c.07,.05,.15,.09,.21,.14,.25,.18,.46,.37,.57,.49,.01,.01,.05,.05,.09,.1,.04,.05,.09,.1,.12,.14,.14,.17,.28,.36,.4,.57,.07,.12,.12,.24,.17,.36,.2,.5,.28,1,.3,1.33v.04Zm0-.04h0ZM3.17,2.39l-.67,.7-.6,1.41,.22,1.14h-.92c.13-1.54,.94-2.81,2.01-3.27,0,0-.04,.03-.04,.03Zm-.7,3.24s0-.03,0-.05c0-1.37,.47-2.56,1.16-3.15h.01v3.2h-1.18Zm-1.26-.04h0Zm2-3.22s-.17,.17-.33,.41c-.38,.59-.64,1.28-.72,2.13-.04,.35-.03,.63-.03,.56,0,.06,0,.17,0,.17h-.92v-.04h0c.02-.33,.09-.83,.3-1.33,.05-.12,.11-.24,.17-.36,.12-.22,.26-.41,.4-.57,.03-.04,.08-.1,.12-.14,.04-.05,.08-.09,.09-.1,.11-.11,.32-.31,.57-.49,.07-.05,.14-.1,.21-.14,.05-.03,.14-.09,.14-.09h0Zm-.61-.05c-.16,.11-.44,.31-.44,.31l-.95,1.02-.48,1.99H.33c.06-1.54,1.02-2.84,2.37-3.39h0s-.05,.02-.11,.07Zm-.58,.5c-.33,.34-.51,.67-.68,1.02-.1,.19-.16,.37-.22,.53-.01,.03-.1,.28-.16,.56-.07,.33-.1,.7-.1,.7H.35s.04-.34,.08-.56c.06-.28,.17-.61,.33-.92,.14-.27,.3-.51,.46-.72,.09-.11,.23-.27,.37-.4,.17-.16,.34-.3,.36-.31,.06-.04,.11-.08,.16-.12,.12-.08,.24-.15,.33-.21,.05-.03,.09-.05,.13-.07-.06,.04-.13,.1-.22,.17-.13,.11-.24,.22-.34,.33Zm.56-.49-1.37,3.27h0Zm2-3.22s-.17,.17-.33,.41c-.38,.59-.64,1.28-.72,2.13-.04,.35-.03,.63-.03,.56,0,.06,0,.17,0,.17h-.92v-.04h0c.02-.33,.09-.83,.3-1.33,.05-.12,.11-.24,.17-.36,.12-.22,.26-.41,.4-.57,.03-.04,.08-.1,.12-.14,.04-.05,.08-.09,.09-.1,.11-.11,.32-.31,.57-.49,.07-.05,.14-.1,.21-.14,.05-.03,.14-.09,.14-.09h0Zm1.3-1.26h-1.37s-.02-.01-.02-.02v-.05s.01-.02,.02-.02h1.37s.02,.01,.02,.02v.05s-.01,.02-.02,.02Zm0,1.04h-1.37s-.02-.01-.02-.02v-.05s.01-.02,.02-.02h1.37s.02,.01,.02,.02v.05s-.01,.02-.02,.02Zm2.98,3.86H.15s-.02-.01-.02-.02v-.06s.01-.02,.02-.02H7.49s.02,.01,.02,.02v.06s-.01,.02-.02,.02ZM3.69,.28h-.03v-.06h.03v.05h0Zm.28,0h-.03v-.06h.03v.05h0Zm-.3,.02v-.02h.31v.02h-.31Zm.17-.22h-.03V0h.04v.06h0Zm-.02,.36V.07h.02V.43h-.02Zm-.52,.51h0c0-.31,.24-.55,.53-.55s.53,.25,.53,.55h-1.06Zm1.2,.17h-1.33s-.04-.02-.04-.04h0s.02-.05,.04-.05h1.33s.04,.02,.04,.04h0s-.02,.05-.04,.05Zm0,1.04h-1.33s-.04-.02-.04-.04h0s.02-.05,.04-.05h1.33s.04,.02,.04,.04h0s-.02,.05-.04,.05Zm-.6-.18h-.13s-.04-.02-.04-.04v-.71s.02-.04,.04-.04h.13s.04,.02,.04,.04v.71s-.02,.04-.04,.04Zm.35,0h-.13s-.04-.02-.04-.04v-.71s.02-.04,.04-.04h.13s.04,.02,.04,.04v.71s-.02,.04-.04,.04Zm-.7,0h-.13s-.04-.02-.04-.04v-.71s.02-.04,.04-.04h.13s.04,.02,.04,.04v.71s-.02,.04-.04,.04Zm1.61,3.98v-.16s.02-.03,.03-.03h.32s.03,.02,.03,.03v.15h-.39Zm.35,.59h-.31s-.04-.02-.04-.04v-.31s.02-.04,.04-.04h.31s.04,.02,.04,.04v.31s-.02,.04-.04,.04Zm.9-.58v-.16s.02-.03,.03-.03h.32s.03,.02,.03,.03v.15h-.39Zm.35,.59h-.31s-.04-.02-.04-.04v-.31s.02-.04,.04-.04h.31s.04,.02,.04,.04v.31s-.02,.04-.04,.04Zm-4.66-.59v-.15s.02-.03,.03-.03h.32s.03,.02,.03,.03v.16h-.39Zm.35,.58h-.31s-.04-.02-.04-.04v-.31s.02-.04,.04-.04h.31s.04,.02,.04,.04v.31s-.02,.04-.04,.04Zm-1.61-.59v-.15s.02-.03,.03-.03h.32s.03,.02,.03,.03v.16h-.39Zm.35,.58h-.31s-.04-.02-.04-.04v-.31s.02-.04,.04-.04h.31s.04,.02,.04,.04v.31s-.02,.04-.04,.04Zm2.43-.59v-.15s.02-.03,.03-.03h.32s.03,.02,.03,.03v.16h-.39Zm.35,.58h-.31s-.04-.02-.04-.04v-.31s.02-.04,.04-.04h.31s.04,.02,.04,.04v.31s-.02,.04-.04,.04Zm3.5-.52H.17s-.04-.02-.04-.04v-.02s.02-.04,.04-.04H7.47s.04,.02,.04,.04v.02s-.02,.04-.04,.04Zm0,.86H.17s-.04-.02-.04-.04v-.17s.02-.04,.04-.04H7.47s.04,.02,.04,.04v.17s-.02,.04-.04,.04Z"/><g><path class="g" d="M.16,8.46H.16c0-.27,.2-.51,.49-.51,.17,0,.27,.05,.37,.13l-.07,.08c-.08-.07-.16-.11-.3-.11-.22,0-.37,.18-.37,.4H.27c0,.24,.15,.41,.39,.41,.11,0,.22-.04,.28-.1v-.24h-.3v-.1h.41v.39c-.09,.08-.23,.15-.4,.15-.31,0-.5-.23-.5-.51Z"/><path class="g" d="M1.42,8.46h0c0-.27,.2-.51,.5-.51s.5,.23,.5,.51h0c0,.27-.2,.51-.5,.51s-.5-.23-.5-.51Zm.89,0h0c0-.23-.16-.41-.39-.41s-.39,.18-.39,.4h0c0,.23,.16,.41,.39,.41s.39-.18,.39-.4Z"/><path class="g" d="M2.82,7.96h.42c.11,0,.2,.03,.26,.09,.04,.04,.06,.09,.06,.16h0c0,.13-.08,.2-.16,.23,.12,.04,.21,.1,.21,.24h0c0,.17-.14,.27-.36,.27h-.44v-.98Zm.4,.44c.13,0,.23-.06,.23-.18h0c0-.1-.08-.16-.22-.16h-.3v.34h.29Zm.04,.45c.15,0,.24-.07,.24-.18h0c0-.11-.09-.17-.26-.17h-.31v.35h.33Z"/><path class="g" d="M4.01,7.96h.11v.98h-.11v-.98Z"/><path class="g" d="M4.57,7.96h.71v.1h-.6v.34h.54v.1h-.54v.34h.61v.1h-.72v-.98Z"/><path class="g" d="M5.67,7.96h.42c.12,0,.22,.04,.28,.1,.05,.05,.08,.12,.08,.19h0c0,.17-.11,.26-.27,.29l.3,.4h-.14l-.29-.38h-.28v.38h-.11v-.98Zm.41,.5c.15,0,.25-.08,.25-.2h0c0-.12-.09-.2-.25-.2h-.3v.4h.3Z"/><path class="g" d="M6.85,7.96h.1l.62,.79v-.79h.11v.98h-.09l-.64-.81v.81h-.11v-.98Z"/><path class="g" d="M8.07,8.46h0c0-.27,.2-.51,.5-.51s.5,.23,.5,.51h0c0,.27-.2,.51-.5,.51s-.5-.23-.5-.51Zm.89,0h0c0-.23-.16-.41-.39-.41s-.39,.18-.39,.4h0c0,.23,.16,.41,.39,.41s.39-.18,.39-.4Z"/><path class="g" d="M10.06,7.96h.34c.31,0,.52,.21,.52,.49h0c0,.28-.21,.5-.52,.5h-.34v-.98Zm.34,.88c.25,0,.41-.17,.41-.39h0c0-.22-.16-.39-.41-.39h-.23v.78h.23Z"/><path class="g" d="M11.32,7.96h.71v.1h-.6v.34h.54v.1h-.54v.34h.61v.1h-.72v-.98Z"/><path class="g" d="M13,7.96h.11v.88h.55v.1h-.67v-.98Z"/><path class="g" d="M14.4,7.95h.1l.45,.99h-.12l-.12-.26h-.54l-.12,.26h-.11l.45-.99Zm.27,.63l-.22-.5-.22,.5h.45Z"/></g><g><path class="g" d="M1.49,11.34c-.13,.04-.3,.04-.43-.12l-.31-.4c-.09-.11-.19-.13-.33-.13v.39c0,.14,.1,.17,.23,.18,.01,0,0,.07-.01,.07H.02s-.03-.07-.01-.07c.1-.01,.17-.05,.17-.18v-.91c0-.13-.07-.17-.17-.2-.02,0,0-.07,.01-.07,.08,.01,.17,.01,.23,.01,.15,0,.29-.01,.39-.01,.31,0,.51,.13,.51,.38,0,.24-.19,.35-.36,.36H.79c.08,.01,.14,.04,.23,.16l.3,.38c.06,.08,.12,.1,.17,.1,.02,0,.01,.05,0,.06Zm-.59-1c0-.22-.14-.32-.32-.32-.12,0-.16,.05-.16,.16v.42h.06c.3,0,.42-.05,.42-.26Z"/><path class="g" d="M1.82,11.27c.12-.03,.21-.05,.21-.2v-.9c0-.13-.08-.16-.17-.19-.02,0,0-.07,.01-.07,.15,.02,.4,.01,.53,.01,.18,0,.32,0,.49-.01,.05,0,.05,.03,.04,.08l-.05,.19s-.06,.03-.06,0c-.03-.1-.09-.16-.35-.16-.14,0-.19,.04-.19,.14v.33c0,.05,.03,.06,.07,.06h.04c.16,0,.31-.02,.39-.09,.02-.02,.06-.01,.05,.03l-.12,.26s-.05,.03-.07,0c-.05-.06-.15-.09-.27-.09h-.03s-.07,.01-.07,.06v.34c0,.12,.05,.16,.22,.16,.31,0,.43-.14,.48-.22,.01-.02,.07-.01,.07,.02,0,.1-.09,.31-.22,.31-.11,0-.23-.01-.4-.01-.19,0-.41,0-.59,.01-.02,0-.03-.07-.01-.07Z"/><path class="g" d="M3.85,10.79v.29c0,.14,.1,.17,.23,.18,.01,0,0,.07-.01,.07h-.62s-.03-.07-.01-.07c.1-.01,.17-.05,.17-.18v-.91c0-.13-.07-.17-.17-.2-.02,0,0-.07,.01-.07,.08,.01,.17,.01,.23,.01,.15,0,.28-.01,.38-.01,.31,0,.57,.12,.57,.43,0,.36-.34,.51-.79,.45Zm0-.61v.51c.35,.05,.53-.03,.53-.3,0-.24-.15-.38-.36-.38-.13,0-.16,.04-.16,.16Z"/><path class="g" d="M5.21,10.8v-.64c0-.13-.06-.17-.16-.18-.02,0,0-.07,.01-.07h.55s.03,.07,.01,.07c-.08,.01-.16,.04-.16,.18v.65c0,.28,.16,.42,.38,.42s.4-.13,.4-.42v-.65c0-.13-.08-.17-.17-.18-.01,0,0-.07,.01-.07h.46s.03,.07,.01,.07c-.08,.01-.16,.04-.16,.18v.64c0,.37-.24,.57-.56,.57-.29,0-.61-.15-.61-.56Zm.6-1.4c.04-.05,.21,.1,.16,.14l-.27,.2s-.1-.04-.08-.07l.18-.27Z"/><path class="g" d="M8.17,10.93c0,.25-.23,.41-.57,.41-.1,0-.21-.01-.36-.01-.13,0-.23,0-.32,.01-.02,0-.03-.07-.01-.07,.12-.03,.21-.05,.21-.2v-.9c0-.13-.08-.16-.17-.19-.02,0,0-.07,.01-.07,.08,.01,.18,.01,.25,.01,.16,0,.28-.01,.37-.01,.26,0,.48,.11,.48,.33,0,.16-.11,.28-.26,.31h0c.19,.01,.37,.15,.37,.38Zm-.81-.76v.36h.21c.15,0,.23-.07,.23-.23,0-.19-.13-.28-.3-.28-.11,0-.14,.04-.14,.15Zm.55,.8c0-.22-.15-.34-.34-.34h-.21v.44c0,.11,.06,.17,.23,.17s.31-.05,.31-.26Z"/><path class="g" d="M8.56,11.27c.12-.03,.21-.05,.21-.2v-.9c0-.14-.08-.17-.17-.18-.02,0,0-.07,.01-.07h.56s.02,.07,.01,.07c-.09,.01-.17,.04-.17,.18v.9c0,.12,.05,.16,.22,.16,.31,0,.43-.14,.48-.22,.01-.02,.07-.01,.07,.02,0,.1-.09,.31-.22,.31-.11,0-.23-.01-.4-.01-.19,0-.41,0-.59,.01-.02,0-.03-.07-.01-.07Z"/><path class="g" d="M10.13,11.27c.1-.01,.17-.05,.17-.18v-.92c0-.13-.06-.17-.17-.18-.02,0,0-.07,.01-.07h.56s.03,.07,.01,.07c-.09,.01-.17,.04-.17,.18v.92c0,.14,.08,.17,.17,.18,.02,0,0,.07-.01,.07h-.56s-.03-.07-.01-.07Z"/><path class="g" d="M11.14,10.65c0-.35,.22-.77,.78-.77,.24,0,.44,.07,.41,.14l-.03,.08c-.07,.22-.15-.06-.51-.06-.29,0-.43,.19-.43,.48,0,.46,.35,.65,.63,.65,.04,0,.22-.03,.33-.1,.02-.01,.06,.04,.05,.05-.09,.13-.36,.24-.42,.24-.34,0-.8-.2-.8-.72Z"/><path class="g" d="M14.22,11.34h-.54s-.03-.06,0-.07c.08-.01,.16-.04,.08-.22l-.02-.05s-.05-.05-.12-.05h-.41c-.06,0-.1,0-.12,.05l-.02,.05c-.07,.17,0,.2,.1,.22,.03,0,.02,.07,0,.07h-.44s-.03-.06,0-.07c.08-.01,.13-.04,.21-.22l.34-.79c.08-.18,.1-.26,.1-.34,0-.01,.14-.04,.15-.03l.5,1.16c.07,.17,.12,.21,.2,.22,.03,0,.02,.07,0,.07Zm-.57-.53l-.24-.57-.24,.57s.02,.03,.05,.03h.38s.06,0,.05-.03Z"/><path class="g" d="M15.21,11.27c.12-.03,.21-.05,.21-.2v-.9c0-.13-.08-.16-.17-.19-.02,0,0-.07,.01-.07,.08,.01,.17,.01,.25,.01,.16,0,.3-.01,.4-.01,.49,0,.76,.29,.76,.68s-.27,.75-.76,.75c-.1,0-.22-.01-.37-.01-.13,0-.23,0-.32,.01-.02,0-.03-.07-.01-.07Zm1.22-.56c0-.39-.21-.69-.58-.69-.14,0-.19,.04-.19,.15v.9c0,.11,.08,.16,.27,.16,.33,0,.5-.18,.5-.52Z"/><path class="g" d="M17.11,10.63c0-.41,.29-.75,.74-.75s.73,.31,.73,.73-.29,.75-.74,.75c-.42,0-.73-.31-.73-.74Zm1.23,.1c0-.41-.28-.71-.57-.71-.18,0-.41,.12-.41,.5,0,.41,.28,.71,.57,.71,.18,0,.42-.12,.42-.5Z"/><path class="g" d="M20.79,11.34h-.53s-.02-.07-.01-.07c.09-.01,.15-.05,.14-.18l-.04-.68-.33,.67c-.04,.09-.08,.18-.08,.21,0,.02-.05,.04-.08,.04-.03,0-.05-.01-.06-.04l-.47-.89-.03,.69c0,.14,.08,.17,.14,.18,.02,0,0,.07-.01,.07h-.42s-.03-.07-.01-.07c.09-.01,.16-.04,.17-.18l.06-1.17s.08-.04,.1,0l.59,1.1,.55-1.1s.1-.03,.1,0l.06,1.17c0,.14,.08,.17,.17,.18,.02,0,0,.07-.01,.07Z"/><path class="g" d="M21.21,11.27c.1-.01,.17-.05,.17-.18v-.92c0-.13-.06-.17-.17-.18-.02,0,0-.07,.01-.07h.56s.03,.07,.01,.07c-.09,.01-.17,.04-.17,.18v.92c0,.14,.08,.17,.17,.18,.02,0,0,.07-.01,.07h-.56s-.03-.07-.01-.07Z"/><path class="g" d="M23.46,11.32l-.97-1.01v.77c0,.14,.08,.16,.2,.19,.02,0,0,.07-.01,.07h-.48s-.03-.06-.01-.07c.09-.03,.17-.04,.17-.19v-.79c0-.14-.02-.21-.08-.28-.02-.02-.04-.04-.04-.05,0-.02,.01-.04,.04-.04h.15s.03,0,.05,.02l.95,1v-.76c0-.14-.09-.16-.2-.19-.02,0,0-.07,.01-.07h.48s.03,.06,.01,.07c-.09,.03-.17,.04-.17,.19v.79c0,.13,0,.28,.02,.36,0,.03-.02,.04-.06,.04-.03,0-.05-.01-.08-.04Z"/><path class="g" d="M24.14,11.27c.1-.01,.17-.05,.17-.18v-.92c0-.13-.06-.17-.17-.18-.02,0,0-.07,.01-.07h.56s.03,.07,.01,.07c-.09,.01-.17,.04-.17,.18v.92c0,.14,.08,.17,.17,.18,.02,0,0,.07-.01,.07h-.56s-.03-.07-.01-.07Z"/><path class="g" d="M25.15,10.65c0-.35,.22-.77,.78-.77,.24,0,.44,.07,.41,.14l-.03,.08c-.07,.22-.15-.06-.51-.06-.29,0-.43,.19-.43,.48,0,.46,.35,.65,.63,.65,.04,0,.22-.03,.33-.1,.02-.01,.06,.04,.05,.05-.09,.13-.36,.24-.42,.24-.34,0-.8-.2-.8-.72Z"/><path class="g" d="M28.23,11.34h-.54s-.03-.06,0-.07c.08-.01,.16-.04,.08-.22l-.02-.05s-.05-.05-.12-.05h-.41c-.06,0-.1,0-.12,.05l-.02,.05c-.07,.17,0,.2,.1,.22,.03,0,.02,.07,0,.07h-.44s-.03-.06,0-.07c.08-.01,.13-.04,.21-.22l.34-.79c.08-.18,.1-.26,.1-.34,0-.01,.14-.04,.15-.03l.5,1.16c.07,.17,.12,.21,.2,.22,.03,0,.02,.07,0,.07Zm-.57-.53l-.24-.57-.24,.57s.02,.03,.05,.03h.38s.06,0,.05-.03Z"/><path class="g" d="M29.88,11.32l-.97-1.01v.77c0,.14,.08,.16,.2,.19,.02,0,0,.07-.01,.07h-.48s-.03-.06-.01-.07c.09-.03,.17-.04,.17-.19v-.79c0-.14-.02-.21-.08-.28-.02-.02-.04-.04-.04-.05,0-.02,.01-.04,.04-.04h.15s.03,0,.05,.02l.95,1v-.76c0-.14-.09-.16-.2-.19-.02,0,0-.07,.01-.07h.48s.03,.06,.01,.07c-.09,.03-.17,.04-.17,.19v.79c0,.13,0,.28,.02,.36,0,.03-.02,.04-.06,.04-.03,0-.05-.01-.08-.04Z"/><path class="g" d="M31.98,11.34h-.54s-.03-.06,0-.07c.08-.01,.16-.04,.08-.22l-.02-.05s-.05-.05-.12-.05h-.41c-.06,0-.1,0-.12,.05l-.02,.05c-.07,.17,0,.2,.1,.22,.03,0,.02,.07,0,.07h-.44s-.03-.06,0-.07c.08-.01,.13-.04,.21-.22l.34-.79c.08-.18,.1-.26,.1-.34,0-.01,.14-.04,.15-.03l.5,1.16c.07,.17,.12,.21,.2,.22,.03,0,.02,.07,0,.07Zm-.57-.53l-.24-.57-.24,.57s.02,.03,.05,.03h.38s.06,0,.05-.03Z"/></g><rect class="g" x=".18" y="12.55" width="7.34" height=".35"/></g><text class="h" transform="translate(.13 16.39)"><tspan class="l" x="0" y="0">É</tspan><tspan class="i" x="1.57" y="0">TI</tspan><tspan class="b" x="4.24" y="0">C</tspan><tspan class="i" x="5.87" y="0">A E INT</tspan><tspan class="c" x="14.97" y="0">E</tspan><tspan class="k" x="16.54" y="0">GRI</tspan><tspan class="j" x="21.24" y="0">D</tspan><tspan class="e" x="23.09" y="0">A</tspan><tspan class="i" x="25" y="0">D </tspan><tspan class="i" x="0" y="2.79">GUBER</tspan><tspan class="d" x="8.99" y="2.79">N</tspan><tspan class="i" x="10.92" y="2.79">AMEN</tspan><tspan class="f" x="18.72" y="2.79">T</tspan><tspan class="i" x="20.27" y="2.79">AL</tspan></text></svg>